<?xml version="1.0" standalone="no"?>
<!DOCTYPE svg PUBLIC "-//W3C//DTD SVG 20010904//EN"
 "http://www.w3.org/TR/2001/REC-SVG-20010904/DTD/svg10.dtd">
<svg version="1.0" xmlns="http://www.w3.org/2000/svg"
 width="1200.000000pt" height="2071.000000pt" viewBox="0 0 1200.000000 2071.000000"
 preserveAspectRatio="xMidYMid meet">

<g transform="translate(0.000000,2071.000000) scale(0.100000,-0.100000)"
fill="#000000" stroke="none">
<path d="M5957 20695 c-77 -27 -117 -85 -117 -167 0 -76 31 -125 100 -160 l54
-27 -3 -58 c-6 -166 -55 -354 -132 -503 -109 -213 -257 -353 -594 -560 -82
-51 -176 -110 -208 -132 l-57 -39 -94 41 c-322 141 -520 355 -615 665 -27 86
-27 92 8 110 64 33 100 123 80 198 -22 82 -123 148 -202 132 -82 -17 -147 -94
-147 -175 0 -56 20 -99 63 -137 34 -29 57 -38 127 -45 23 -3 26 -9 38 -78 20
-114 11 -336 -18 -425 -43 -135 -124 -267 -219 -360 -41 -39 -41 -39 -69 -22
-115 74 -294 147 -617 251 -110 35 -235 78 -278 95 -317 127 -541 307 -725
581 -56 84 -162 282 -162 303 0 7 13 23 30 35 59 44 86 138 59 209 -14 38 -46
71 -91 94 -112 57 -251 -28 -252 -154 -1 -104 60 -171 168 -185 l58 -7 570
-1590 570 -1590 -11 -56 c-17 -84 -13 -121 14 -173 23 -43 25 -58 25 -178 0
-115 -3 -138 -22 -176 -26 -56 -34 -128 -18 -176 17 -53 57 -96 88 -96 15 0
43 -4 62 -10 65 -18 364 -69 575 -99 611 -87 1208 -124 2000 -124 970 0 1782
64 2492 199 100 19 191 34 201 34 34 0 75 74 80 141 5 68 -18 143 -49 159 -17
10 -19 23 -19 133 0 123 0 123 32 167 40 54 49 132 24 208 l-17 49 569 1588
568 1589 55 11 c81 16 124 53 149 128 51 157 -149 293 -278 190 -109 -87 -93
-233 33 -308 16 -10 13 -21 -41 -125 -177 -348 -400 -570 -723 -723 -58 -27
-248 -97 -421 -154 -309 -103 -426 -149 -525 -206 -35 -21 -54 -26 -65 -20 -8
6 -43 43 -78 84 -69 82 -144 222 -168 314 -22 84 -29 265 -15 365 16 107 18
110 54 110 88 0 167 82 167 174 0 179 -216 248 -323 104 -58 -79 -24 -222 62
-258 39 -16 39 -27 0 -137 -112 -316 -302 -509 -642 -649 l-78 -32 -172 110
c-267 170 -362 236 -447 310 -203 176 -330 410 -375 693 -21 133 -22 188 -5
193 57 16 103 48 125 86 60 103 10 234 -103 266 -47 13 -58 12 -105 -5z m133
-37 c55 -38 75 -73 75 -132 0 -68 -35 -117 -100 -142 -38 -14 -52 -15 -84 -5
-104 31 -147 122 -101 216 38 79 141 109 210 63z m-3912 -169 c63 -38 87 -150
46 -207 -96 -129 -284 -74 -284 83 0 116 136 187 238 124z m7818 -4 c60 -39
81 -126 46 -195 -69 -137 -286 -86 -286 68 0 127 133 198 240 127z m-5720
-331 c67 -32 102 -125 74 -194 -18 -44 -72 -87 -119 -95 -96 -16 -192 80 -176
174 17 103 127 160 221 115z m1800 -234 c67 -190 169 -337 333 -483 60 -53
217 -161 493 -339 214 -137 349 -271 425 -421 64 -128 82 -236 63 -377 -16
-121 -39 -206 -130 -479 -111 -331 -117 -427 -35 -500 44 -38 120 -61 206 -61
159 0 247 81 278 257 8 40 11 207 9 490 -3 417 -2 430 19 506 34 120 75 187
169 277 176 169 312 237 764 381 224 71 383 133 489 190 220 119 390 272 532
483 78 114 83 120 65 71 -7 -22 -244 -683 -526 -1470 -281 -786 -513 -1432
-515 -1435 -2 -3 -55 4 -117 17 -315 63 -689 119 -980 148 -595 58 -854 67
-1743 62 -810 -4 -827 -5 -1390 -57 -353 -33 -990 -129 -1160 -175 -18 -5 -61
108 -513 1372 -609 1706 -564 1579 -559 1573 3 -3 32 -45 65 -95 188 -281 416
-459 754 -589 62 -24 221 -78 353 -121 250 -80 412 -150 536 -230 99 -64 238
-204 272 -275 69 -144 87 -324 69 -725 -18 -409 13 -550 137 -623 42 -25 55
-27 151 -27 92 0 111 3 155 25 55 28 91 73 101 129 13 66 -14 184 -94 422
-107 318 -125 395 -126 544 -1 140 19 218 81 324 94 158 214 265 483 432 272
170 370 239 471 337 179 171 286 367 329 602 18 101 21 101 41 5 10 -49 30
-124 45 -165z m1844 228 c76 -52 97 -123 58 -198 -45 -88 -149 -112 -226 -53
-62 47 -79 126 -41 193 42 75 143 103 209 58z m-155 -521 c-8 -43 11 -214 32
-286 34 -120 90 -217 192 -337 28 -32 51 -61 51 -64 0 -3 -14 -14 -30 -24 -17
-9 -70 -55 -119 -102 -190 -181 -227 -343 -202 -894 16 -362 -4 -492 -86 -572
-49 -48 -82 -59 -168 -60 -94 0 -149 16 -193 57 l-37 34 0 98 c1 96 2 103 92
373 50 151 98 313 107 359 20 106 21 269 1 346 -35 136 -143 299 -269 407
l-73 62 96 42 c279 120 447 274 567 517 21 42 40 77 42 77 1 0 0 -15 -3 -33z
m-3347 -189 c98 -142 220 -241 414 -337 l137 -68 -82 -70 c-86 -73 -142 -138
-201 -237 -79 -131 -105 -257 -86 -419 15 -127 36 -207 120 -457 82 -245 100
-311 100 -379 0 -126 -70 -181 -232 -183 -101 0 -158 25 -199 91 -64 101 -75
204 -59 581 22 512 -11 663 -182 834 -46 46 -96 92 -111 104 l-28 21 66 78
c151 177 224 368 225 591 l1 57 42 -80 c23 -44 57 -101 75 -127z m2332 -2238
c694 -31 1196 -87 1773 -197 211 -40 215 -42 224 -127 7 -55 -28 -126 -61
-126 -12 0 -77 12 -146 25 -711 143 -1552 215 -2510 215 -978 0 -1889 -77
-2562 -217 -124 -25 -129 -26 -148 -8 -31 28 -43 86 -29 139 6 25 16 50 23 55
6 5 76 23 156 40 441 91 1170 173 1780 200 261 12 1243 12 1500 1z m-20 -260
c707 -32 1296 -98 1819 -205 68 -14 125 -25 127 -25 2 0 4 -59 4 -131 l0 -131
-32 6 c-573 115 -1111 179 -1828 216 -251 13 -1368 13 -1615 0 -609 -32 -1272
-106 -1696 -190 -85 -16 -157 -30 -161 -30 -5 0 -8 58 -8 128 l0 129 123 26
c462 100 1153 178 1832 206 282 12 1177 12 1435 1z m166 -310 c674 -38 1197
-101 1698 -204 130 -26 140 -33 151 -97 9 -50 0 -88 -28 -121 l-22 -27 -150
30 c-545 107 -1051 165 -1743 200 -323 16 -1557 6 -1852 -15 -326 -23 -618
-52 -835 -81 -241 -32 -586 -89 -690 -114 l-80 -20 -23 21 c-12 12 -26 37 -32
56 -12 44 5 129 29 141 32 18 378 80 662 120 362 51 815 94 1204 114 159 8
1555 6 1711 -3z"/>
<path d="M3 8443 l2 -6598 22 -80 c112 -410 421 -693 883 -808 85 -21 91 -21
2160 -27 l2075 -5 73 -23 c220 -68 407 -217 555 -442 60 -91 157 -290 187
-383 l22 -68 42 93 c86 189 225 397 360 537 132 136 243 212 386 263 l65 23
2085 5 c2080 6 2085 6 2170 27 128 32 204 60 314 116 292 149 484 382 569 692
l22 80 2 6598 3 6597 -6000 0 -6000 0 3 -6597z m1344 6075 c52 -56 156 -294
208 -472 14 -49 50 -196 80 -325 68 -289 93 -382 147 -534 46 -129 49 -132
187 -232 l54 -39 -7 38 c-4 20 -10 44 -13 52 -8 22 12 17 90 -22 150 -76 189
-86 317 -82 l115 3 21 -45 c22 -46 134 -413 134 -440 0 -8 17 -32 38 -54 20
-22 -15 7 -78 65 -63 58 -125 111 -136 119 -12 8 -55 43 -95 77 -41 34 -159
121 -264 194 -233 162 -337 242 -394 304 -76 83 -115 194 -165 471 -31 171
-78 373 -83 358 -2 -7 7 -61 21 -121 14 -60 44 -215 66 -344 33 -186 47 -243
68 -279 36 -62 222 -246 372 -366 69 -56 292 -247 495 -425 448 -393 566 -491
766 -641 132 -99 248 -187 284 -215 70 -56 225 -183 244 -200 14 -12 28 -20
33 -17 4 3 8 -1 8 -9 0 -8 15 -22 33 -30 17 -9 30 -20 28 -24 -2 -4 10 -15 27
-24 17 -9 29 -19 26 -22 -9 -8 77 -72 93 -69 8 2 13 -3 11 -11 -3 -16 96 -110
106 -100 3 3 6 1 6 -6 0 -21 43 -51 53 -38 5 8 7 6 5 -5 -4 -20 267 -282 282
-273 6 3 10 -1 10 -10 0 -9 9 -19 19 -22 11 -3 21 -14 24 -25 3 -11 15 -22 26
-25 12 -3 21 -10 21 -15 0 -5 62 -76 138 -157 189 -202 195 -210 193 -272 0
-33 5 -56 14 -66 8 -8 15 -27 15 -43 0 -27 -2 -28 -28 -21 -25 8 -29 5 -47
-31 -22 -47 -93 -114 -140 -134 -19 -8 -62 -14 -95 -14 -51 0 -73 6 -142 41
-66 33 -97 42 -167 50 -47 4 -106 10 -131 13 -25 3 -82 8 -127 11 -45 3 -90 8
-100 12 -12 4 -15 3 -8 -5 30 -32 686 -202 778 -202 65 0 128 29 226 104 93
70 114 72 177 14 76 -70 234 -329 234 -383 0 -30 89 -191 125 -225 27 -26 35
-30 30 -15 -6 17 -5 18 4 3 15 -22 2 -52 -48 -113 -22 -27 -37 -52 -33 -56 28
-25 204 -145 236 -161 40 -21 40 -19 -2 42 l-24 35 29 -35 c42 -52 76 -86 92
-91 9 -3 12 -12 8 -22 -10 -26 -68 -21 -113 10 -21 14 -73 43 -115 64 -42 21
-105 63 -140 95 -35 31 -87 73 -114 94 -28 20 -56 45 -64 54 -19 23 -75 51
-129 65 -47 13 -209 131 -504 368 l-178 142 -140 40 c-246 71 -572 202 -639
258 -24 20 -24 20 -5 31 12 6 93 13 181 15 88 2 166 8 173 12 8 5 3 13 -17 26
-15 10 -28 23 -28 29 0 12 -142 150 -155 150 -5 0 -10 10 -12 22 -2 12 -18 32
-37 45 -18 12 -41 37 -51 55 -9 18 -33 42 -53 53 -20 11 -38 29 -39 40 -2 11
-24 33 -50 50 -26 17 -47 38 -47 48 -1 10 -20 30 -46 45 -24 15 -45 32 -45 39
0 14 -53 59 -79 68 -11 3 -21 16 -23 28 -2 13 -18 30 -40 42 -21 11 -39 29
-40 40 -2 10 -22 33 -45 50 -23 16 -42 36 -42 43 -1 22 -40 70 -61 77 -11 4
-20 15 -20 25 0 17 -52 70 -70 70 -4 0 -10 14 -14 30 -3 20 -16 37 -36 48 -16
9 -30 25 -30 34 0 10 -9 22 -20 28 -12 6 -25 22 -30 36 -8 19 -17 24 -45 24
-62 0 -379 91 -404 115 -2 3 18 59 44 125 38 93 53 120 68 120 14 0 0 23 -58
93 -42 50 -140 171 -218 268 l-142 176 -80 23 c-157 46 -366 139 -369 165 -1
6 38 30 86 55 48 25 93 51 99 57 8 8 -26 55 -134 185 -238 284 -243 287 -542
397 -255 94 -274 104 -261 136 9 26 83 52 196 70 160 25 179 32 186 61 8 33
-14 791 -26 911 -12 112 -13 173 -2 173 5 0 18 -10 29 -22z m9359 8 c3 -7 -2
-78 -10 -157 -9 -83 -18 -310 -21 -537 l-7 -392 34 -14 c18 -7 71 -19 118 -25
99 -14 186 -36 218 -57 54 -35 19 -57 -243 -154 -223 -82 -297 -120 -360 -185
-58 -59 -323 -375 -327 -390 -2 -5 40 -31 92 -58 52 -26 96 -54 98 -61 5 -21
-139 -90 -302 -144 l-147 -50 -214 -263 c-167 -206 -211 -265 -198 -270 17 -6
115 -227 107 -241 -14 -22 -289 -106 -378 -115 -44 -5 -60 -11 -63 -23 -3 -10
-18 -27 -34 -39 -16 -12 -29 -27 -29 -34 0 -7 -13 -23 -30 -35 -19 -15 -30
-31 -30 -47 0 -18 -7 -26 -24 -31 -26 -6 -56 -43 -56 -69 0 -8 -4 -15 -10 -15
-18 0 -80 -62 -80 -80 0 -9 -18 -29 -40 -44 -22 -14 -40 -34 -40 -44 0 -10
-20 -32 -45 -50 -25 -17 -45 -38 -45 -46 0 -8 -19 -25 -42 -38 -24 -13 -44
-32 -46 -43 -2 -11 -25 -33 -50 -50 -26 -16 -47 -37 -47 -45 0 -8 -11 -21 -25
-29 -40 -22 -70 -53 -70 -73 0 -10 -6 -18 -13 -18 -21 0 -87 -60 -87 -79 0
-10 -17 -29 -37 -42 -22 -14 -39 -34 -41 -47 -2 -12 -8 -22 -13 -22 -14 0
-159 -142 -159 -156 0 -6 -12 -16 -27 -23 -52 -24 -10 -34 151 -38 85 -2 167
-8 183 -14 l28 -11 -25 -20 c-67 -56 -402 -190 -642 -258 l-140 -40 -166 -133
c-322 -258 -458 -357 -518 -378 -65 -22 -144 -65 -144 -79 0 -5 -21 -24 -47
-41 -27 -18 -76 -59 -110 -90 -38 -36 -93 -73 -140 -95 -43 -21 -96 -50 -117
-66 -43 -31 -103 -38 -112 -14 -3 9 10 29 34 51 22 19 59 65 82 100 23 36 44
65 47 65 7 0 -29 -57 -69 -111 -21 -27 -35 -49 -32 -49 13 0 125 71 201 127
80 60 81 61 62 79 -11 9 -33 37 -49 62 l-29 44 -36 -71 c-19 -39 -37 -71 -40
-71 -3 0 12 35 33 78 21 42 44 88 50 102 7 14 10 17 8 8 -8 -26 6 -22 36 10
28 29 118 202 118 226 0 53 183 344 246 392 51 39 79 33 169 -39 73 -58 160
-97 218 -97 77 0 649 143 742 186 27 12 22 13 -60 8 -135 -8 -262 -20 -323
-30 -18 -3 -69 -23 -114 -45 -68 -32 -92 -39 -142 -39 -101 1 -188 56 -236
150 -19 36 -22 38 -51 30 -30 -9 -30 -9 -24 23 4 18 13 37 20 42 9 7 11 26 8
55 -6 61 19 97 196 282 78 80 141 150 141 155 0 4 10 13 23 18 12 6 21 16 19
23 -1 7 9 17 23 22 17 6 23 14 18 25 -4 11 -1 15 9 13 18 -4 338 289 338 309
0 7 7 13 16 13 23 0 111 84 106 100 -3 7 1 10 9 8 18 -7 49 20 43 37 -4 10 1
12 16 8 16 -4 23 0 27 16 3 11 11 21 18 21 8 0 22 11 33 25 11 14 25 25 31 25
6 0 18 11 27 25 9 14 19 24 21 21 3 -3 67 46 142 107 167 136 179 146 361 282
256 192 401 313 850 709 124 110 329 286 457 392 236 198 360 323 394 398 10
23 32 125 49 226 17 102 47 256 66 343 20 87 33 161 31 164 -7 6 -61 -227 -87
-372 -33 -187 -57 -280 -95 -362 -54 -117 -118 -172 -534 -463 -170 -119 -173
-121 -328 -257 l-140 -121 8 45 c11 56 102 365 123 415 9 20 21 40 28 45 7 4
69 8 138 8 l125 0 122 59 c68 33 126 57 129 53 3 -3 1 -26 -4 -52 l-10 -46 27
17 c14 9 58 41 98 71 l71 54 41 112 c58 161 83 250 152 547 72 310 128 491
204 648 75 156 106 197 121 158z m-7805 -2317 c34 -38 56 -69 50 -69 -6 0 -19
9 -28 20 -10 11 -21 20 -26 20 -11 0 -32 21 -40 40 -4 12 -6 12 -6 -2 -1 -12
-6 -15 -17 -11 -9 3 -13 12 -9 22 5 12 3 13 -6 4 -9 -9 -14 -9 -24 0 -10 10
-10 17 2 40 17 34 17 34 104 -64z m6319 66 c11 -30 3 -58 -16 -51 -7 3 -14 1
-16 -5 -2 -5 -13 -11 -25 -14 -13 -2 -37 -18 -55 -34 -18 -17 -39 -31 -47 -31
-13 0 127 157 142 159 4 1 12 -10 17 -24z m-6032 -298 c4 -7 -41 7 -62 21 -6
3 -18 7 -26 9 -8 1 -16 6 -18 12 -2 5 -10 7 -18 4 -8 -3 -14 0 -14 7 0 6 -4 9
-9 5 -5 -3 -12 4 -16 14 -4 13 -11 18 -22 14 -11 -4 -14 -2 -9 5 5 8 2 10 -8
6 -9 -3 -16 -1 -16 5 0 6 11 13 24 17 14 3 27 13 31 21 4 12 24 -2 83 -58 42
-41 79 -77 80 -82z m5839 118 l28 -12 -32 -17 c-18 -9 -33 -21 -33 -27 0 -6
-4 -7 -10 -4 -5 3 -10 1 -10 -4 0 -6 -9 -11 -19 -11 -11 0 -22 -4 -26 -10 -3
-5 -12 -7 -20 -3 -8 3 -15 0 -15 -7 0 -6 -4 -8 -10 -5 -5 3 -10 2 -10 -3 0 -5
-9 -12 -20 -15 -11 -3 -20 -2 -20 1 0 15 155 149 162 139 3 -6 19 -16 35 -22z
m-5643 -267 c-8 -12 10 -10 23 3 9 9 25 0 64 -32 88 -74 140 -122 135 -126 -6
-6 -56 19 -56 29 0 5 -4 7 -9 3 -5 -3 -12 -1 -16 5 -4 6 -11 8 -16 5 -5 -4
-16 1 -25 9 -9 9 -20 14 -25 11 -5 -4 -9 -2 -9 4 0 6 -7 7 -17 4 -11 -4 -14
-3 -9 5 5 8 2 10 -8 6 -10 -4 -20 3 -27 19 -8 17 -17 23 -28 19 -13 -5 -14 -3
-3 10 11 14 9 19 -14 37 -14 11 -30 18 -35 15 -5 -3 -9 0 -9 6 0 6 -4 8 -10 5
-14 -9 -80 25 -80 41 0 8 -7 14 -15 14 -12 0 -9 9 12 35 l28 35 77 -77 c42
-42 75 -80 72 -85z m5406 152 c0 -5 12 -21 27 -35 22 -20 24 -25 10 -25 -9 0
-17 -6 -17 -13 0 -18 -73 -48 -82 -33 -6 8 -8 8 -8 -1 0 -6 -10 -15 -22 -19
-26 -8 -67 -44 -50 -44 20 0 14 -18 -8 -25 -11 -4 -18 -11 -15 -16 5 -8 -10
-13 -18 -6 -2 1 -11 -6 -21 -15 -10 -10 -26 -18 -36 -18 -10 0 -21 -4 -24 -9
-3 -5 -18 -12 -33 -16 -15 -3 -30 -10 -33 -14 -3 -5 -15 -11 -27 -15 -42 -13
-15 19 73 89 46 36 84 71 84 77 0 6 9 3 20 -7 13 -12 20 -14 20 -5 0 12 138
157 153 159 4 0 7 -3 7 -9z m-5072 -366 c71 -64 86 -88 43 -64 -15 8 -21 8
-21 0 0 -6 -13 -2 -29 9 -15 11 -31 18 -34 15 -3 -3 -21 2 -41 11 -32 15 -34
19 -24 39 10 19 10 20 -5 7 -10 -7 -17 -10 -17 -6 0 8 41 52 50 54 3 1 38 -29
78 -65z m4692 33 c20 -25 21 -30 7 -24 -11 4 -16 3 -12 -4 8 -12 -14 -41 -26
-33 -5 3 -9 -1 -9 -8 0 -9 -3 -9 -10 2 -6 9 -10 11 -10 3 0 -7 -6 -10 -14 -7
-7 3 -16 -2 -20 -11 -3 -9 -10 -13 -16 -10 -5 3 -10 1 -10 -6 0 -10 -3 -10
-11 -2 -9 9 -18 7 -37 -5 -24 -16 -25 -16 -15 2 10 19 143 136 152 135 3 0 17
-14 31 -32z m-4500 -177 c41 -38 67 -67 58 -64 -13 4 -18 1 -19 -12 0 -11 -3
-14 -5 -7 -3 7 -12 9 -20 6 -8 -3 -14 1 -14 11 0 9 -6 13 -14 10 -8 -3 -23 3
-33 13 -11 11 -25 17 -31 15 -7 -2 -15 3 -18 12 -3 9 -10 13 -15 10 -5 -3 -9
-1 -9 5 0 6 -8 8 -17 4 -11 -3 -4 9 16 30 19 21 37 37 40 37 4 0 40 -31 81
-70z m4317 34 c21 -20 31 -34 23 -32 -8 3 -24 -4 -35 -14 -11 -11 -28 -17 -37
-14 -12 2 -18 -2 -18 -12 0 -8 -3 -12 -6 -9 -4 4 -20 -3 -35 -14 -19 -13 -29
-16 -29 -8 0 7 -7 5 -16 -7 -15 -18 -15 -18 -10 0 5 14 2 17 -9 12 -29 -11 -2
22 65 79 36 30 66 54 67 55 1 0 19 -16 40 -36z m-4153 -150 c59 -55 104 -109
61 -74 -16 14 -17 13 -11 -8 5 -13 3 -22 -3 -22 -6 0 -11 5 -11 11 0 5 -4 7
-10 4 -5 -3 -10 -1 -10 5 0 6 -4 9 -9 5 -6 -3 -14 3 -20 12 -6 10 -11 13 -11
6 0 -8 -6 -8 -25 0 -14 7 -25 15 -25 19 0 4 -7 5 -15 2 -11 -4 -15 0 -15 16 0
16 -4 20 -15 16 -8 -3 -15 -2 -15 1 0 6 61 62 69 63 2 0 31 -25 65 -56z m3977
20 c28 -30 30 -35 12 -30 -18 6 -21 4 -16 -16 3 -13 3 -20 -1 -17 -4 4 -28 -4
-54 -17 -26 -13 -48 -20 -50 -15 -2 6 -13 0 -25 -12 -19 -19 -22 -20 -25 -5
-2 11 -9 15 -20 12 -9 -3 17 26 58 65 41 39 77 71 81 71 3 0 21 -16 40 -36z
m-3761 -195 c33 -41 27 -72 -7 -39 -16 14 -23 16 -27 7 -5 -9 -7 -9 -12 1 -3
6 -9 10 -14 7 -4 -2 -25 4 -46 15 -22 10 -35 19 -30 20 6 0 1 6 -9 14 -18 13
-18 15 10 49 l30 34 38 -36 c21 -20 51 -52 67 -72z m3571 71 l33 -29 -27 -27
c-15 -15 -27 -23 -27 -19 0 5 -8 1 -17 -7 -23 -19 -61 -29 -65 -17 -2 6 -13 1
-25 -10 -18 -17 -22 -18 -27 -5 -4 10 15 38 56 80 33 35 62 64 64 64 2 0 17
-13 35 -30z m-3831 -40 c0 -5 -4 -10 -10 -10 -5 0 -10 5 -10 10 0 6 5 10 10
10 6 0 10 -4 10 -10z m415 -158 c32 -34 56 -65 53 -68 -7 -6 -49 16 -60 31 -5
6 -8 5 -8 -3 0 -9 -5 -10 -19 -3 -10 6 -21 7 -25 4 -3 -3 -6 -1 -6 6 0 7 -4 9
-10 6 -5 -3 -10 1 -10 9 0 10 -7 13 -21 11 -15 -3 -23 2 -26 15 -3 11 -9 17
-14 14 -22 -13 -6 21 23 48 30 28 32 28 48 11 9 -10 43 -46 75 -81z m3268 8
c-10 -11 -25 -20 -35 -20 -10 0 -18 -5 -18 -11 0 -5 -4 -7 -10 -4 -5 3 -10 1
-10 -6 0 -7 -3 -10 -6 -7 -3 4 -21 0 -40 -8 -19 -8 -34 -11 -34 -7 0 4 -5 2
-12 -5 -7 -7 -16 -12 -20 -12 -21 0 -2 29 65 97 l72 74 33 -35 c31 -34 31 -37
15 -56z m-3563 66 c0 -11 -19 -15 -25 -6 -3 5 1 10 9 10 9 0 16 -2 16 -4z
m3740 -6 c0 -5 -2 -10 -4 -10 -3 0 -8 5 -11 10 -3 6 -1 10 4 10 6 0 11 -4 11
-10z m-3700 -40 c0 -5 -2 -10 -4 -10 -3 0 -8 5 -11 10 -3 6 -1 10 4 10 6 0 11
-4 11 -10z m3650 0 c0 -5 -2 -10 -4 -10 -3 0 -8 5 -11 10 -3 6 -1 10 4 10 6 0
11 -4 11 -10z m-60 -70 c0 -5 -4 -10 -10 -10 -5 0 -10 5 -10 10 0 6 5 10 10
10 6 0 10 -4 10 -10z m-3470 -21 c0 -5 -4 -9 -10 -9 -5 0 -10 7 -10 16 0 8 5
12 10 9 6 -3 10 -10 10 -16z m3420 0 c0 -5 -4 -9 -10 -9 -5 0 -10 7 -10 16 0
8 5 12 10 9 6 -3 10 -10 10 -16z m-3081 -129 c36 -42 46 -58 30 -49 -13 7 -28
12 -33 11 -4 -2 -17 7 -27 19 -10 12 -19 17 -19 10 0 -7 -14 -4 -40 9 -22 11
-40 25 -40 30 0 6 -3 9 -7 9 -24 -4 -35 3 -29 17 4 12 2 15 -9 10 -24 -9 -18
5 18 39 l32 31 35 -36 c19 -20 59 -65 89 -100z m2892 90 c5 0 9 -7 9 -16 0 -8
-4 -13 -9 -10 -5 3 -11 -3 -14 -13 -4 -17 -113 -79 -148 -85 -8 -1 -24 -8 -37
-14 -13 -8 13 31 59 88 l82 100 25 -25 c13 -14 29 -25 33 -25z m-3171 0 c0 -5
-4 -10 -10 -10 -5 0 -10 5 -10 10 0 6 5 10 10 10 6 0 10 -4 10 -10z m3300 0
c0 -5 -4 -10 -10 -10 -5 0 -10 5 -10 10 0 6 5 10 10 10 6 0 10 -4 10 -10z
m-3250 -59 c0 -6 -4 -13 -10 -16 -5 -3 -10 1 -10 9 0 9 5 16 10 16 6 0 10 -4
10 -9z m3200 -6 c0 -8 -4 -15 -10 -15 -5 0 -10 7 -10 15 0 8 5 15 10 15 6 0
10 -7 10 -15z m-3130 -39 c0 -11 -19 -15 -25 -6 -3 5 1 10 9 10 9 0 16 -2 16
-4z m3060 -6 c0 -5 -4 -10 -10 -10 -5 0 -10 5 -10 10 0 6 5 10 10 10 6 0 10
-4 10 -10z m-2759 -115 c45 -62 65 -83 74 -75 8 7 27 -11 67 -68 74 -104 75
-107 45 -87 -14 9 -29 16 -32 15 -14 -3 -75 34 -75 46 0 8 -6 11 -15 8 -11 -5
-14 -2 -9 12 6 16 5 17 -7 7 -21 -20 -34 -15 -16 5 16 18 15 18 -16 15 -24 -3
-29 -2 -17 6 8 6 23 11 33 11 28 0 14 24 -15 25 -29 2 -98 41 -98 56 0 6 -5 7
-11 3 -8 -4 -9 1 -4 16 6 20 5 21 -16 10 -19 -11 -21 -10 -16 4 4 11 1 16 -11
17 -9 0 -1 7 18 16 19 8 39 21 43 29 4 8 10 14 12 14 2 0 32 -38 66 -85z
m2559 41 c32 -15 33 -16 7 -12 -27 3 -27 3 -10 -17 l18 -21 -28 18 c-28 17
-28 17 -17 -5 10 -17 9 -23 -1 -30 -7 -4 -17 -5 -21 -3 -4 3 -8 1 -8 -4 0 -16
-72 -54 -92 -49 -29 8 -21 -18 10 -31 l27 -12 -28 4 c-20 3 -25 0 -18 -7 17
-17 13 -31 -4 -17 -13 10 -15 9 -15 -11 0 -19 -2 -21 -10 -9 -8 13 -10 12 -10
-3 0 -10 -4 -15 -10 -12 -5 3 -10 1 -10 -5 0 -6 -4 -8 -10 -5 -5 3 -10 1 -10
-5 0 -6 -4 -8 -10 -5 -5 3 -10 2 -10 -2 0 -8 -71 -46 -76 -40 -1 1 28 42 64
90 45 62 67 85 73 76 4 -8 10 -11 12 -9 2 3 23 32 47 65 70 97 81 107 94 90 6
-7 27 -21 46 -29z m-2820 14 c0 -5 -4 -10 -10 -10 -5 0 -10 5 -10 10 0 6 5 10
10 10 6 0 10 -4 10 -10z m2980 0 c0 -5 -4 -10 -10 -10 -5 0 -10 5 -10 10 0 6
5 10 10 10 6 0 10 -4 10 -10z m-2900 -65 c0 -8 -4 -15 -10 -15 -5 0 -10 7 -10
15 0 8 5 15 10 15 6 0 10 -7 10 -15z m2820 -6 c0 -5 -4 -9 -10 -9 -5 0 -10 7
-10 16 0 8 5 12 10 9 6 -3 10 -10 10 -16z m-2347 -301 c80 -123 87 -139 34
-86 -27 28 -48 42 -51 35 -2 -7 -5 -3 -5 8 -1 17 -3 17 -11 5 -7 -11 -10 -6
-10 20 -1 31 -2 32 -10 13 -5 -13 -12 -23 -16 -23 -3 0 -3 7 0 16 5 14 4 15
-8 5 -17 -15 -31 2 -22 26 5 13 4 14 -9 3 -8 -7 -15 -9 -15 -4 0 6 58 62 67
64 1 0 26 -37 56 -82z m1948 45 c19 -20 27 -33 17 -30 -12 4 -15 2 -12 -7 7
-19 -16 -32 -27 -15 -7 11 -9 9 -10 -6 l0 -20 -9 20 c-7 17 -9 16 -10 -10 -2
-29 -2 -29 -9 -5 -8 25 -8 25 -12 2 -2 -12 -7 -21 -11 -20 -3 2 -25 -16 -47
-39 -23 -23 -41 -39 -41 -36 0 13 125 203 134 203 1 0 18 -16 37 -37z m-1787
-268 c20 -47 46 -100 56 -118 22 -37 72 -178 66 -184 -2 -2 -14 26 -26 64 -24
72 -89 199 -90 173 0 -10 -3 -11 -8 -4 -4 6 -17 16 -29 23 -15 7 -23 22 -24
39 -1 17 -3 20 -6 10 -2 -10 -9 -18 -14 -18 -6 0 -7 5 -3 12 4 7 3 8 -4 4 -21
-13 -33 3 -21 27 l12 22 -23 -20 c-16 -14 -22 -16 -18 -5 5 17 79 70 89 64 4
-2 23 -42 43 -89z m1620 64 c26 -17 46 -35 46 -42 0 -8 -4 -7 -12 1 -17 17
-26 15 -24 -5 0 -10 -5 -17 -11 -15 -7 1 -13 -4 -13 -10 -1 -7 -7 -2 -16 12
l-15 25 6 -32 c4 -18 3 -33 -2 -33 -5 0 -19 -9 -31 -21 -12 -11 -27 -17 -32
-14 -6 3 -10 2 -10 -2 0 -5 -7 -18 -15 -29 -8 -10 1 17 21 61 20 44 40 92 46
108 5 15 12 27 13 27 2 0 24 -14 49 -31z m-151 -204 c-3 -9 -8 -14 -10 -11 -3
3 -2 9 2 15 9 16 15 13 8 -4z m-37 -101 c-24 -70 -133 -300 -120 -254 4 14 26
63 49 110 23 47 52 116 65 153 12 38 24 66 26 64 2 -2 -7 -35 -20 -73z m-1287
-104 c11 -24 11 -24 -3 -6 -9 11 -16 24 -16 30 0 12 5 7 19 -24z m75 -160 c5
-17 4 -20 -2 -10 -5 8 -13 26 -16 40 -5 17 -4 20 2 10 5 -8 13 -26 16 -40z
m1080 -54 c-3 -15 -8 -25 -11 -23 -2 3 -1 17 3 31 3 15 8 25 11 23 2 -3 1 -17
-3 -31z m-1055 -26 c0 -9 -4 -8 -9 5 -5 11 -9 27 -9 35 0 9 4 8 9 -5 5 -11 9
-27 9 -35z m1022 -57 c-11 -21 -20 -35 -21 -31 0 12 33 78 38 74 2 -2 -6 -21
-17 -43z m-1002 7 c11 -24 11 -24 -3 -6 -9 11 -16 24 -16 30 0 12 5 7 19 -24z
m978 -72 c-3 -8 -6 -5 -6 6 -1 11 2 17 5 13 3 -3 4 -12 1 -19z m-950 -10 c-3
-8 -6 -5 -6 6 -1 11 2 17 5 13 3 -3 4 -12 1 -19z m940 -30 c-3 -8 -6 -5 -6 6
-1 11 2 17 5 13 3 -3 4 -12 1 -19z m-930 -20 c-3 -7 -5 -2 -5 12 0 14 2 19 5
13 2 -7 2 -19 0 -25z m920 -20 c-3 -8 -6 -5 -6 6 -1 11 2 17 5 13 3 -3 4 -12
1 -19z m-898 -48 c0 -9 -4 -8 -9 5 -5 11 -9 27 -9 35 0 9 4 8 9 -5 5 -11 9
-27 9 -35z m888 8 c-3 -8 -6 -5 -6 6 -1 11 2 17 5 13 3 -3 4 -12 1 -19z m-763
-263 l18 -30 -20 25 c-23 28 -102 172 -102 186 0 5 20 -27 43 -71 24 -44 51
-93 61 -110z m368 -536 c-2 -24 -8 -46 -12 -49 -12 -7 -37 -112 -50 -208 -6
-46 -13 -89 -16 -96 -4 -10 13 -15 60 -20 36 -4 72 -9 80 -12 11 -4 7 17 -15
85 -16 50 -29 99 -28 109 0 9 11 -19 24 -63 13 -44 31 -99 39 -122 9 -26 11
-45 5 -48 -26 -17 15 -174 80 -307 43 -88 81 -244 88 -363 5 -98 5 -101 -20
-124 -20 -18 -43 -25 -102 -32 -193 -21 -233 -49 -350 -241 -155 -253 -305
-520 -305 -544 0 -3 15 13 33 36 17 23 53 63 78 90 106 110 180 219 212 312
34 98 70 144 139 179 55 28 131 34 193 15 50 -16 50 -16 69 10 l19 25 18 -28
c10 -15 17 -35 14 -43 -3 -9 7 -23 25 -35 17 -11 36 -33 44 -50 16 -35 26
-176 27 -403 1 -89 5 -165 10 -168 5 -3 3 -14 -4 -25 -10 -16 -9 -21 3 -29 10
-7 12 -12 4 -17 -7 -5 -14 -76 -18 -192 -6 -147 -5 -186 6 -192 11 -7 11 -11
-1 -18 -9 -6 -12 -19 -8 -40 4 -18 2 -31 -3 -31 -6 0 -10 -31 -10 -70 0 -40 4
-70 10 -70 6 0 10 -4 10 -10 0 -5 -7 -10 -16 -10 -13 0 -15 -11 -13 -62 2 -35
1 -68 -3 -73 -4 -6 -6 -38 -6 -70 0 -33 -2 -67 -5 -75 -3 -8 -11 -71 -17 -140
-6 -69 -13 -145 -15 -170 -3 -25 -16 -126 -30 -225 -66 -469 -72 -529 -110
-1135 -14 -217 -37 -525 -51 -685 -23 -250 -25 -306 -17 -405 7 -73 17 -129
28 -150 10 -19 64 -100 120 -180 57 -80 142 -206 190 -280 48 -74 92 -139 98
-145 26 -26 -51 99 -182 295 -216 323 -252 410 -233 575 7 63 10 70 11 33 2
-66 138 -331 320 -623 80 -126 170 -279 202 -340 96 -184 180 -421 165 -461
-6 -15 -9 -15 -27 2 -12 11 -49 53 -82 94 -33 41 -119 136 -191 210 -72 75
-198 206 -280 293 -82 87 -159 165 -172 173 -28 19 -35 16 -164 -76 -52 -37
-109 -75 -127 -84 -39 -20 -82 -21 -89 -2 -6 16 29 105 116 295 90 195 110
259 110 355 0 78 -37 506 -44 513 -2 2 -52 -12 -110 -31 -88 -28 -108 -32
-113 -20 -9 25 38 153 113 304 l72 146 -34 324 c-18 179 -34 334 -35 345 0 11
-3 14 -6 8 -2 -7 -12 -13 -21 -13 -18 0 -222 86 -234 98 -12 12 112 252 171
332 41 56 49 75 42 89 -6 10 -7 27 -4 39 3 12 2 30 -2 39 -4 10 -7 37 -6 59 1
23 -2 45 -8 49 -7 4 -9 26 -5 59 4 32 2 56 -4 60 -6 3 -8 32 -4 71 3 46 1 65
-7 65 -9 0 -10 17 -5 60 4 40 3 64 -5 74 -8 10 -8 21 -1 40 13 36 13 73 -2 78
-9 3 -9 12 0 38 14 40 15 87 2 95 -6 4 -6 15 0 31 13 33 13 91 0 99 -6 4 -7
13 -1 23 11 21 12 250 1 257 -4 3 -3 24 3 46 6 26 7 48 1 58 -5 9 -9 85 -8
169 1 83 -3 152 -8 152 -4 0 -61 -51 -126 -113 -65 -63 -129 -116 -141 -120
-22 -5 -23 -4 -19 36 11 92 157 431 271 631 66 115 67 119 78 219 14 146 57
492 73 600 9 60 26 116 47 161 30 64 33 82 46 245 11 140 19 195 43 271 16 52
32 112 35 134 7 40 47 90 68 83 8 -3 11 -20 9 -48z m5 -106 c-3 -10 -5 -4 -5
12 0 17 2 24 5 18 2 -7 2 -21 0 -30z m10 -55 c-3 -7 -5 -2 -5 12 0 14 2 19 5
13 2 -7 2 -19 0 -25z m97 -284 c3 -8 2 -12 -4 -9 -6 3 -10 10 -10 16 0 14 7
11 14 -7z m26 -44 c6 -11 8 -20 6 -20 -3 0 -10 9 -16 20 -6 11 -8 20 -6 20 3
0 10 -9 16 -20z m46 -75 c14 -25 25 -48 23 -50 -2 -2 -16 19 -32 46 -34 62
-27 65 9 4z m56 -127 c10 -21 16 -38 13 -38 -7 0 -45 78 -44 92 0 9 2 8 6 -2
3 -8 14 -32 25 -52z m57 -123 c0 -5 -6 1 -14 15 -8 14 -14 30 -14 35 0 6 6 -1
14 -15 8 -14 14 -29 14 -35z m40 -120 c0 -5 -4 -3 -9 5 -5 8 -9 22 -9 30 0 16
17 -16 18 -35z m21 -50 c0 -5 -5 -3 -10 5 -5 8 -10 20 -10 25 0 6 5 3 10 -5 5
-8 10 -19 10 -25z m69 -155 c0 -10 -3 -8 -9 5 -12 27 -12 43 0 25 5 -8 9 -22
9 -30z m81 -226 c0 -7 -6 -11 -12 -11 -7 1 -30 -3 -51 -7 -26 -6 -42 -5 -50 3
-8 8 -5 11 14 12 22 0 22 1 4 9 -13 6 -15 9 -5 9 13 1 13 2 0 11 -11 7 -11 10
-2 10 7 0 10 5 7 10 -8 13 1 13 28 -1 l22 -12 -20 23 c-20 22 -31 100 -13 100
4 0 6 12 3 28 -3 15 12 -18 34 -73 22 -55 40 -105 41 -111z m4 -152 c14 -67
26 -123 26 -125 0 -7 -100 -4 -100 4 0 5 6 9 13 9 8 0 7 4 -3 10 -13 9 -13 10
0 10 12 0 12 2 2 9 -10 6 -7 10 13 15 27 7 27 7 9 28 -11 12 -14 18 -8 15 8
-4 12 2 12 16 3 116 4 138 7 135 1 -1 14 -58 29 -126z m31 -306 c6 -41 4 -48
-8 -43 -17 6 -16 -3 4 -122 14 -84 13 -88 -23 -93 -18 -3 -42 -8 -53 -12 -20
-8 -20 -7 -1 8 19 15 19 16 1 16 -18 0 -18 0 -1 13 17 12 17 14 3 20 -10 4
-14 14 -12 27 8 39 29 95 44 113 18 22 9 32 -17 18 -29 -15 -37 -14 -22 4 9
10 9 15 1 15 -6 0 -11 5 -11 10 0 6 10 10 22 10 21 0 21 0 2 16 -18 14 -18 15
6 8 l25 -7 -25 21 c-21 17 -22 22 -9 27 9 3 15 16 13 28 -1 12 5 32 12 44 8
12 14 30 15 40 1 19 22 -81 34 -161z m-135 -276 c0 -5 -7 -10 -15 -10 -8 0
-15 5 -15 10 0 6 7 10 15 10 8 0 15 -4 15 -10z m137 -246 c-10 -7 -88 -10 -93
-3 -3 5 0 9 7 9 9 0 9 3 0 14 -7 8 -9 26 -6 42 4 16 7 35 7 42 1 6 5 12 10 12
4 0 7 3 7 8 -3 20 2 32 13 26 6 -4 8 -3 4 4 -3 6 1 30 11 54 l17 43 13 -124
c7 -69 11 -126 10 -127z m-157 146 c0 -5 -5 -10 -11 -10 -5 0 -7 5 -4 10 3 6
8 10 11 10 2 0 4 -4 4 -10z m20 -80 c0 -5 -4 -10 -10 -10 -5 0 -10 5 -10 10 0
6 5 10 10 10 6 0 10 -4 10 -10z m-20 -80 c0 -5 -4 -10 -10 -10 -5 0 -10 5 -10
10 0 6 5 10 10 10 6 0 10 -4 10 -10z m135 -112 l7 -107 -26 -7 c-14 -3 -38 -1
-53 4 -22 8 -24 11 -8 12 18 1 19 1 3 11 -22 12 -23 38 -3 45 11 4 12 10 6 18
-7 8 -2 25 14 51 13 22 29 51 35 64 6 13 12 22 14 20 2 -2 7 -52 11 -111z
m-125 32 c0 -5 -2 -10 -4 -10 -3 0 -8 5 -11 10 -3 6 -1 10 4 10 6 0 11 -4 11
-10z m-10 -70 c0 -5 -4 -10 -10 -10 -5 0 -10 5 -10 10 0 6 5 10 10 10 6 0 10
-4 10 -10z m114 -127 c3 -21 6 -65 6 -99 l0 -60 -42 2 c-24 1 -45 2 -48 3 -10
2 -4 65 8 95 11 25 14 27 30 15 14 -11 15 -11 5 1 -18 20 -17 46 0 31 11 -9
13 -5 12 19 -3 44 21 37 29 -7z m-134 -23 c0 -5 -2 -10 -4 -10 -3 0 -8 5 -11
10 -3 6 -1 10 4 10 6 0 11 -4 11 -10z m0 -54 c0 -3 -4 -8 -10 -11 -5 -3 -10
-1 -10 4 0 6 5 11 10 11 6 0 10 -2 10 -4z m106 -176 c-3 -36 -6 -78 -6 -95 0
-29 -2 -30 -53 -32 -46 -2 -50 -1 -34 11 18 14 18 15 0 25 -10 6 -13 11 -6 11
6 0 14 18 18 40 4 22 11 40 16 40 6 0 8 4 5 9 -4 5 -1 11 4 13 6 2 12 13 12
24 2 16 8 21 26 20 24 -1 24 -2 18 -66z m-126 36 c0 -3 -4 -8 -10 -11 -5 -3
-10 -1 -10 4 0 6 5 11 10 11 6 0 10 -2 10 -4z m95 -265 c-10 -119 -8 -116 -55
-115 -41 1 -69 13 -34 15 10 0 14 3 8 5 -12 5 -6 64 7 64 5 0 6 6 3 14 -3 8 0
17 5 21 6 3 9 11 6 16 -4 5 -1 9 5 9 7 0 10 7 6 15 -3 8 -1 15 5 15 6 0 8 4 5
9 -3 5 6 9 19 9 l26 0 -6 -77z m-40 -286 l-6 -60 -42 4 c-33 3 -38 5 -22 12
16 6 16 8 3 8 -10 1 -15 8 -13 19 2 9 4 17 5 17 1 0 3 9 5 20 2 11 9 21 14 23
6 2 11 13 11 23 0 11 4 17 10 14 6 -3 7 1 4 9 -3 9 -2 16 4 16 5 0 14 12 18
28 8 24 9 21 12 -23 2 -27 1 -77 -3 -110z m-34 -181 c-6 -41 -11 -93 -11 -115
0 -22 -4 -38 -9 -34 -5 3 -21 0 -35 -6 -32 -15 -41 -8 -26 20 6 12 7 21 2 21
-5 0 -9 7 -9 15 0 8 4 15 9 15 5 0 6 5 3 10 -3 6 -1 10 5 10 6 0 8 5 5 10 -3
6 -1 10 4 10 6 0 11 14 11 31 0 17 4 28 10 24 6 -3 11 3 11 14 1 12 3 24 4 29
2 4 6 18 10 31 7 20 9 21 17 7 5 -10 5 -46 -1 -92z m-41 -275 c0 -97 -2 -110
-16 -105 -9 3 -30 6 -47 6 -23 0 -28 3 -18 9 8 5 11 16 7 26 -3 10 -1 33 6 51
10 28 14 31 27 21 12 -10 13 -9 3 10 -9 16 -9 22 0 25 6 2 12 15 14 29 1 13 3
27 3 32 1 4 6 7 11 7 6 0 10 -44 10 -111z m-40 -239 c0 -105 -1 -110 -21 -110
-11 0 -29 -5 -40 -10 -15 -8 -19 -7 -19 5 0 8 6 15 13 15 8 0 7 4 -3 10 -8 5
-10 10 -5 10 6 0 11 14 11 32 1 18 6 34 12 36 5 1 8 12 5 22 -4 13 0 20 9 20
9 0 14 9 13 23 -2 18 14 57 22 57 2 0 3 -49 3 -110z m-35 -388 c-1 -1 -15 3
-31 8 -28 10 -46 50 -23 50 5 0 8 3 8 8 -3 17 2 33 9 29 4 -3 8 18 9 45 4 98
17 82 23 -27 4 -60 6 -111 5 -113z m3 -199 c33 -49 191 -347 206 -390 l15 -42
-47 -42 c-26 -23 -63 -57 -83 -75 -42 -39 -73 -101 -118 -236 -18 -54 -34 -98
-37 -98 -2 0 -16 18 -30 40 -15 22 -29 38 -32 35 -3 -3 -11 -38 -18 -78 -6
-40 -12 -62 -13 -49 -1 13 19 139 44 280 61 348 71 435 74 610 1 39 5 72 10
72 5 0 18 -12 29 -27z"/>
<path d="M1491 13984 c0 -11 3 -14 6 -6 3 7 2 16 -1 19 -3 4 -6 -2 -5 -13z"/>
<path d="M5010 9891 c-87 -27 -170 -111 -170 -172 0 -29 105 -129 134 -129 12
1 35 12 51 26 17 15 24 23 16 18 -8 -4 -32 -10 -53 -14 -38 -7 -38 -7 -49 32
-12 47 -8 104 7 101 7 -1 11 5 10 15 0 10 6 16 16 16 11 -1 14 4 10 14 -4 11
-1 14 11 9 11 -4 17 -1 17 8 0 24 20 17 21 -7 1 -19 3 -17 8 6 4 20 13 30 30
33 21 3 23 0 17 -24 -6 -28 -6 -28 15 5 22 33 46 44 35 16 -5 -13 -3 -14 7 -6
12 11 57 13 57 3 0 -2 -8 -13 -17 -24 -18 -19 -17 -19 5 -6 24 15 25 19 16 44
-15 38 -121 58 -194 36z"/>
<path d="M5195 9794 l-30 -24 34 6 c25 5 32 4 27 -4 -4 -7 -13 -12 -19 -13 -7
0 -30 -8 -52 -18 l-40 -18 58 5 c38 3 57 1 57 -7 0 -6 -19 -12 -42 -13 -37 -1
-39 -2 -10 -5 39 -5 43 -23 5 -24 -27 0 -28 0 -5 -10 33 -13 18 -31 -15 -18
-32 12 -42 5 -14 -11 23 -12 28 -30 9 -30 -9 0 -13 -22 -13 -77 0 -75 1 -77
31 -95 17 -10 51 -21 76 -24 l46 -6 31 65 c17 36 31 74 31 85 0 22 -54 131
-106 214 l-29 46 -30 -24z"/>
<path d="M5352 9402 c-57 -100 -57 -102 43 -109 66 -6 105 7 105 33 0 21 -27
71 -65 121 l-33 43 -50 -88z m113 -12 c9 -15 -3 -47 -21 -54 -42 -16 -76 51
-37 73 18 10 46 0 58 -19z"/>
<path d="M5404 9386 c-8 -21 3 -36 27 -36 15 0 20 6 17 22 -4 27 -35 37 -44
14z"/>
<path d="M5514 9286 c-7 -19 3 -36 22 -36 10 0 14 8 12 22 -4 26 -26 36 -34
14z"/>
<path d="M5455 9251 c-13 -16 -15 -25 -8 -32 8 -8 14 -5 23 10 17 32 7 46 -15
22z"/>
<path d="M5386 9251 c-3 -4 5 -18 18 -30 l24 -22 4 30 c4 27 1 31 -18 31 -13
0 -25 -4 -28 -9z"/>
<path d="M10521 13994 c0 -11 3 -14 6 -6 3 7 2 16 -1 19 -3 4 -6 -2 -5 -13z"/>
<path d="M6850 9887 c-26 -13 -35 -44 -11 -39 7 2 25 -7 39 -20 24 -23 25 -23
11 -1 -7 12 -10 26 -5 30 4 4 11 1 16 -7 5 -8 15 -24 23 -35 15 -19 15 -19 10
6 -4 20 0 25 16 26 13 1 21 -4 21 -13 0 -11 6 -13 21 -9 18 6 20 4 14 -17 -5
-17 -4 -19 4 -8 8 12 16 8 47 -24 38 -39 39 -47 19 -136 -2 -8 -4 -18 -4 -21
-1 -8 -73 5 -89 15 -7 4 -12 3 -12 -1 0 -15 67 -45 87 -39 24 8 111 96 113
116 9 63 -51 138 -136 169 -62 24 -146 27 -184 8z"/>
<path d="M6800 9836 c0 -2 8 -10 18 -17 15 -13 16 -12 3 4 -13 16 -21 21 -21
13z"/>
<path d="M6748 9747 c-20 -34 -50 -90 -67 -124 l-31 -61 20 -51 c29 -74 49
-101 74 -101 37 0 116 31 125 49 4 9 7 48 5 86 -3 57 -6 69 -19 67 -8 -2 -15
2 -15 8 0 5 3 10 8 10 4 0 18 10 32 21 l25 20 -37 -15 c-23 -9 -40 -11 -43 -5
-4 5 4 13 17 18 21 9 21 10 -9 10 -18 1 -33 5 -33 10 0 6 15 12 33 14 31 4 31
4 -5 5 -52 3 -48 22 5 23 l42 0 -42 19 c-47 21 -62 47 -17 30 39 -15 42 -12 9
10 -16 11 -32 20 -35 20 -3 0 -22 -28 -42 -63z"/>
<path d="M6577 9442 c-19 -27 -41 -65 -48 -86 -13 -35 -12 -39 6 -52 10 -8 40
-14 65 -14 45 0 110 16 110 27 0 4 -18 37 -40 75 -22 39 -40 74 -40 78 0 26
-22 14 -53 -28z m48 -43 c4 -5 4 -21 1 -33 -11 -44 -76 -37 -76 8 0 12 3 26 7
29 10 11 61 8 68 -4z"/>
<path d="M6571 9386 c-16 -19 -6 -36 20 -36 15 0 20 6 17 22 -4 27 -21 33 -37
14z"/>
<path d="M6470 9275 c0 -26 24 -35 32 -12 7 18 -2 37 -18 37 -8 0 -14 -10 -14
-25z"/>
<path d="M6540 9255 c0 -30 17 -52 30 -39 8 8 5 18 -9 35 -19 22 -20 23 -21 4z"/>
<path d="M6584 9244 c3 -9 6 -23 6 -32 0 -12 5 -11 25 8 28 27 24 40 -12 40
-19 0 -24 -4 -19 -16z"/>
<path d="M6074 8149 c-10 -17 23 -46 38 -31 8 8 8 15 -2 27 -15 18 -26 19 -36
4z"/>
<path d="M5992 8118 c3 -7 18 -14 34 -16 28 -2 28 -2 10 13 -24 18 -49 20 -44
3z"/>
<path d="M5970 8096 c0 -8 -3 -21 -6 -30 -8 -21 29 -22 46 -1 7 9 11 16 9 18
-46 26 -49 27 -49 13z"/>
<path d="M6041 8064 c-22 -16 -81 -100 -81 -116 0 -4 6 -8 14 -8 7 0 51 -11
97 -24 46 -14 85 -24 85 -23 5 5 -27 150 -36 167 -13 24 -47 26 -79 4z m87
-62 c7 -47 -47 -72 -68 -32 -16 31 4 62 38 58 19 -2 28 -10 30 -26z"/>
<path d="M6077 8013 c-15 -14 -7 -43 12 -43 26 0 36 17 21 35 -14 16 -23 19
-33 8z"/>
<path d="M6003 7848 c-30 -31 -55 -95 -48 -119 4 -10 26 -33 51 -49 24 -17 44
-37 44 -45 0 -8 5 -15 10 -15 6 0 10 5 10 10 0 6 5 10 11 10 7 0 9 -13 5 -37
l-6 -38 17 33 c9 17 20 32 25 32 11 0 10 -7 -3 -33 -11 -21 -10 -21 15 2 31
29 47 20 20 -11 -17 -21 -16 -21 9 1 15 14 30 21 34 17 5 -4 -10 -23 -32 -42
-46 -39 -41 -43 15 -14 43 22 60 25 60 11 0 -5 -14 -14 -30 -21 -17 -7 -29
-14 -27 -16 5 -5 77 16 77 22 0 16 -44 173 -61 219 -18 47 -25 55 -69 74 -80
34 -102 36 -127 9z"/>
<path d="M5967 7536 c-21 -6 -42 -18 -47 -26 -6 -8 -10 -50 -10 -93 0 -77 0
-77 33 -97 42 -26 136 -27 193 -1 97 44 189 171 123 171 -11 0 -17 -5 -14 -10
3 -6 -1 -13 -9 -16 -9 -3 -13 -11 -9 -17 4 -7 -8 -8 -37 -4 -39 5 -41 4 -21
-9 19 -14 20 -17 6 -31 -14 -13 -18 -13 -43 3 -24 16 -26 16 -13 1 17 -22 7
-34 -14 -17 -13 11 -14 10 -9 -4 3 -9 1 -16 -5 -16 -6 0 -11 6 -11 13 0 8 -3
8 -8 2 -9 -13 -62 -13 -62 -1 0 5 -3 6 -7 3 -8 -9 -64 53 -57 64 3 5 0 9 -5 9
-24 0 -8 28 29 50 22 14 40 28 40 33 0 4 -1 7 -2 6 -2 -1 -20 -6 -41 -13z"/>
<path d="M6240 7516 c0 -2 7 -6 15 -10 8 -3 15 -1 15 4 0 6 -7 10 -15 10 -8 0
-15 -2 -15 -4z"/>
<path d="M6178 7463 c7 -3 16 -2 19 1 4 3 -2 6 -13 5 -11 0 -14 -3 -6 -6z"/>
<path d="M6580 1930 c6 -11 13 -20 16 -20 2 0 0 9 -6 20 -6 11 -13 20 -16 20
-2 0 0 -9 6 -20z"/>
</g>
</svg>
